#!OML:ASF I:\Actors\actors\Patient Classification 2\Patient 1\Session 1\actor1.ASF
:FULLY-SPECIFIED
:DEGREES
505
root 0.0651805 18.5793 4.14455 21.0981 13.1293 -2.86667
lowerback 32.4922 1.58902 -1.42485
upperback 5.69812 1.66624 0.601716
thorax -10.4839 0.830951 0.771923
lowerneck 0.493249 -0.7559 -5.12247
upperneck -2.77705 -0.919846 6.43857
head -0.908252 -0.477841 2.96487
rclavicle -1.98785e-014 4.37326e-014
rhumerus 6.61693 21.9714 -65.6629
rradius 146.634
rwrist -14.8491
rhand 6.01928 -55.9785
rfingers 7.12502
rthumb 31.3417 -83.3143
lclavicle -1.98785e-014 4.37326e-014
lhumerus 7.72799 -30.527 60.9737
lradius 142.174
lwrist 10.7964
lhand -11.4214 -27.348
lfingers 7.12502
lthumb 14.6145 2.11702
rfemur -25.0785 -7.56053 16.2918
rtibia 14.6008
rfoot -20.1696 -13.6344
rtoes -12.1411
lfemur -44.3979 -4.598 -11.1052
ltibia 36.344
lfoot -14.0648 3.45085
ltoes -55.0107
506
root 0.0427836 18.5806 4.1367 21.0675 12.9182 -2.77927
lowerback 32.4333 1.66246 -1.58568
upperback 5.72804 1.69813 0.545074
thorax -10.4292 0.849279 0.787415
lowerneck 0.373142 -0.658734 -5.16256
upperneck -2.87922 -0.782489 6.37988
head -0.928394 -0.406405 2.95153
rclavicle -2.68359e-015 3.26007e-014
rhumerus 6.0796 22.0659 -65.5428
rradius 146.75
rwrist -15.4695
rhand 7.26076 -56.3224
rfingers 7.12502
rthumb 32.5239 -83.4219
lclavicle -2.68359e-015 3.26007e-014
lhumerus 7.9131 -30.1272 61.2331
lradius 142.25
lwrist 10.8624
lhand -12.0342 -28.4344
lfingers 7.12502
lthumb 14.0241 1.07251
rfemur -25.2071 -7.46318 16.2228
rtibia 14.8044
rfoot -20.2051 -13.4697
rtoes -11.5911
lfemur -44.303 -4.5383 -11.1533
ltibia 36.2767
lfoot -14.0673 3.61257
ltoes -55.0426
507
root 0.0211766 18.5831 4.13117 20.9964 12.7708 -2.75365
lowerback 32.4434 1.67352 -1.64594
upperback 5.73708 1.68591 0.502756
thorax -10.4226 0.844852 0.779342
lowerneck 0.260741 -0.513205 -5.26493
upperneck -2.93123 -0.581061 6.39706
head -0.938056 -0.302869 2.9751
rclavicle 2.3059e-014 -5.46658e-015
rhumerus 5.55083 21.9359 -65.5913
rradius 146.863
rwrist -16.1988
rhand 9.18965 -56.2732
rfingers 7.12502
rthumb 34.3573 -82.9769
lclavicle 2.3059e-014 -5.46658e-015
lhumerus 7.90496 -29.774 61.375
lradius 142.433
lwrist 11.0848
lhand -11.8824 -28.8055
lfingers 7.12502
lthumb 14.1703 0.691224
rfemur -25.2529 -7.43807 16.2476
rtibia 14.9264
rfoot -20.1576 -13.3273
rtoes -11.3878
lfemur -44.1872 -4.5618 -11.0993
ltibia 36.2117
lfoot -14.0839 3.83861
ltoes -55.1672
508
root 0.00295439 18.5856 4.1276 20.8983 12.6453 -2.80253
lowerback 32.4145 1.62995 -1.62074
upperback 5.7809 1.63544 0.468016
thorax -10.3592 0.820398 0.74907
lowerneck 0.101074 -0.371244 -5.20541
upperneck -2.90412 -0.387648 6.25439
head -0.913302 -0.202562 2.91267
rclavicle 4.96962e-016 6.75868e-015
rhumerus 5.31527 21.7316 -65.7153
rradius 146.957
rwrist -17.0621
rhand 13.1914 -56.2672
rfingers 7.12502
rthumb 38.1466 -82.0264
lclavicle 4.96962e-016 6.75868e-015
lhumerus 7.72302 -29.6556 61.3258
lradius 142.605
lwrist 11.1775
lhand -11.4958 -28.1158
lfingers 7.12502
lthumb 14.5429 1.35447
rfemur -25.2431 -7.46201 16.3629
rtibia 14.9761
rfoot -20.0413 -13.1926
rtoes -11.4434
lfemur -44.0508 -4.52754 -10.9996
ltibia 36.165
lfoot -14.1107 3.9737
ltoes -55.2291
509
root -0.0142866 18.5858 4.11857 20.7364 12.691 -2.83067
lowerback 32.4979 1.48962 -1.50463
upperback 5.8426 1.49728 0.466781
thorax -10.318 0.753926 0.736695
lowerneck -0.054738 -0.30385 -5.1447
upperneck -2.79387 -0.297648 6.12077
head -0.85606 -0.15422 2.85348
rclavicle 3.53837e-014 1.25234e-014
rhumerus 5.34904 21.5572 -65.784
rradius 147.105
rwrist -17.8091
rhand 18.3072 -56.1474
rfingers 7.12502
rthumb 42.955 -80.4092
lclavicle 3.53837e-014 1.25234e-014
lhumerus 7.4451 -29.8265 61.1694
lradius 142.635
lwrist 11.3068
lhand -11.2823 -27.1232
lfingers 7.12502
lthumb 14.7486 2.33206
rfemur -25.1365 -7.4979 16.4358
rtibia 15.02
rfoot -20.0478 -13.1899
rtoes -11.5524
lfemur -43.9086 -4.73287 -10.8558
ltibia 36.1284
lfoot -14.1447 4.15867
ltoes -55.2109
